<?xml version="1.0" encoding="UTF-8"?>
<svg xmlns="http://www.w3.org/2000/svg" xmlns:xlink="http://www.w3.org/1999/xlink" width="24px" height="24px" viewBox="0 0 24 24" version="1.1">
<g id="surface1">
<path style=" stroke:none;fill-rule:nonzero;fill:rgb(0%,0%,0%);fill-opacity:1;" d="M 2.28125 6.539062 L 2.28125 8.632812 L 1.636719 8.652344 L 0.988281 8.671875 L 0.972656 10.390625 L 0.960938 12.121094 L 2.59375 12.121094 L 2.765625 12.292969 C 2.863281 12.390625 2.941406 12.492188 2.941406 12.511719 C 2.941406 12.535156 3.011719 12.628906 3.109375 12.71875 C 3.484375 13.109375 3.539062 13.175781 3.539062 13.246094 C 3.539062 13.285156 3.605469 13.363281 3.691406 13.414062 C 3.773438 13.46875 3.839844 13.546875 3.839844 13.585938 C 3.839844 13.621094 3.910156 13.722656 4.007812 13.8125 C 4.289062 14.082031 4.5 14.328125 4.5 14.394531 C 4.5 14.425781 4.535156 14.476562 4.578125 14.503906 C 4.625 14.527344 4.722656 14.640625 4.800781 14.742188 L 4.945312 14.941406 L 6.28125 14.941406 L 6.546875 14.605469 C 6.691406 14.425781 6.925781 14.148438 7.066406 13.992188 C 7.210938 13.835938 7.351562 13.648438 7.378906 13.570312 C 7.410156 13.5 7.46875 13.441406 7.511719 13.441406 C 7.558594 13.441406 7.644531 13.34375 7.703125 13.230469 C 7.769531 13.117188 7.855469 13.019531 7.902344 13.019531 C 7.945312 13.019531 7.980469 12.976562 7.980469 12.925781 C 7.980469 12.871094 8.046875 12.773438 8.125 12.714844 C 8.207031 12.648438 8.292969 12.546875 8.308594 12.480469 C 8.328125 12.421875 8.398438 12.347656 8.464844 12.328125 C 8.527344 12.304688 8.578125 12.253906 8.578125 12.203125 C 8.578125 12.136719 8.734375 12.121094 9.449219 12.121094 L 10.320312 12.121094 L 10.308594 10.390625 L 10.289062 8.671875 L 9.617188 8.652344 L 8.941406 8.632812 L 8.941406 4.441406 L 2.28125 4.441406 Z M 2.28125 6.539062 "/>
<path style=" stroke:none;fill-rule:nonzero;fill:rgb(0%,0%,0%);fill-opacity:1;" d="M 14.761719 6.539062 L 14.761719 8.632812 L 14.117188 8.652344 L 13.46875 8.671875 L 13.453125 10.390625 L 13.441406 12.121094 L 15.070312 12.121094 L 15.246094 12.292969 C 15.34375 12.390625 15.421875 12.492188 15.421875 12.511719 C 15.421875 12.535156 15.492188 12.628906 15.589844 12.71875 C 15.964844 13.109375 16.019531 13.175781 16.019531 13.246094 C 16.019531 13.285156 16.085938 13.363281 16.171875 13.414062 C 16.253906 13.46875 16.320312 13.546875 16.320312 13.585938 C 16.320312 13.621094 16.390625 13.722656 16.488281 13.8125 C 16.769531 14.082031 16.980469 14.328125 16.980469 14.394531 C 16.980469 14.425781 17.015625 14.476562 17.058594 14.503906 C 17.105469 14.527344 17.203125 14.640625 17.28125 14.742188 L 17.425781 14.941406 L 18.761719 14.941406 L 19.027344 14.605469 C 19.171875 14.425781 19.402344 14.148438 19.546875 13.992188 C 19.691406 13.835938 19.828125 13.648438 19.859375 13.570312 C 19.890625 13.5 19.949219 13.441406 19.992188 13.441406 C 20.039062 13.441406 20.125 13.34375 20.183594 13.230469 C 20.25 13.117188 20.335938 13.019531 20.382812 13.019531 C 20.425781 13.019531 20.460938 12.976562 20.460938 12.925781 C 20.460938 12.871094 20.527344 12.773438 20.605469 12.714844 C 20.6875 12.648438 20.773438 12.546875 20.789062 12.480469 C 20.808594 12.421875 20.878906 12.347656 20.945312 12.328125 C 21.007812 12.304688 21.058594 12.253906 21.058594 12.203125 C 21.058594 12.136719 21.214844 12.121094 21.929688 12.121094 L 22.800781 12.121094 L 22.789062 10.390625 L 22.769531 8.671875 L 22.097656 8.652344 L 21.421875 8.632812 L 21.421875 4.441406 L 14.761719 4.441406 Z M 14.761719 6.539062 "/>
<path style=" stroke:none;fill-rule:nonzero;fill:rgb(0%,0%,0%);fill-opacity:1;" d="M 5.347656 17.753906 C 5.304688 17.824219 5.28125 18.300781 5.28125 18.941406 C 5.28125 20.113281 5.316406 20.25 5.585938 20.207031 C 5.722656 20.191406 5.730469 20.164062 5.746094 19.691406 L 5.765625 19.199219 L 18.058594 19.199219 L 18.058594 19.609375 C 18.058594 20.074219 18.144531 20.242188 18.367188 20.207031 L 18.511719 20.191406 L 18.527344 19.0625 C 18.546875 17.820312 18.515625 17.683594 18.253906 17.710938 C 18.089844 17.730469 18.089844 17.734375 18.070312 18.222656 L 18.054688 18.71875 L 5.765625 18.71875 L 5.746094 18.191406 C 5.730469 17.675781 5.730469 17.671875 5.566406 17.652344 C 5.460938 17.640625 5.386719 17.671875 5.347656 17.753906 Z M 5.347656 17.753906 "/>
</g>
</svg>
