<?xml version="1.0" encoding="UTF-8"?>
<svg xmlns="http://www.w3.org/2000/svg" xmlns:xlink="http://www.w3.org/1999/xlink" width="24px" height="24px" viewBox="0 0 24 24" version="1.1">
<g id="surface1">
<path style=" stroke:none;fill-rule:nonzero;fill:rgb(100%,100%,100%);fill-opacity:1;" d="M 9.25 14 C 10.90625 14 12.25 15.34375 12.25 17 C 12.25 18.65625 10.90625 20 9.25 20 C 7.59375 20 6.25 18.65625 6.25 17 C 6.25 15.34375 7.59375 14 9.25 14 Z M 9.25 14 "/>
<path style=" stroke:none;fill-rule:nonzero;fill:rgb(100%,100%,100%);fill-opacity:1;" d="M 14.25 4 C 12.59375 4 11.25 5.34375 11.25 7 C 11.25 8.65625 12.59375 10 14.25 10 C 15.90625 10 17.25 8.65625 17.25 7 C 17.25 5.34375 15.90625 4 14.25 4 Z M 14.25 4 "/>
<path style=" stroke:none;fill-rule:nonzero;fill:rgb(100%,100%,100%);fill-opacity:1;" d="M 8.75 6.207031 C 9.164062 6.207031 9.5 6.542969 9.5 6.957031 C 9.5 7.371094 9.164062 7.707031 8.75 7.707031 L 1.75 7.707031 C 1.335938 7.707031 1 7.371094 1 6.957031 C 1 6.542969 1.335938 6.207031 1.75 6.207031 Z M 8.75 6.207031 "/>
<path style=" stroke:none;fill-rule:nonzero;fill:rgb(100%,100%,100%);fill-opacity:1;" d="M 14.75 16.207031 C 14.335938 16.207031 14 16.542969 14 16.957031 C 14 17.371094 14.335938 17.707031 14.75 17.707031 L 21.75 17.707031 C 22.164062 17.707031 22.5 17.371094 22.5 16.957031 C 22.5 16.542969 22.164062 16.207031 21.75 16.207031 Z M 14.75 16.207031 "/>
<path style=" stroke:none;fill-rule:nonzero;fill:rgb(100%,100%,100%);fill-opacity:1;" d="M 1 16.957031 C 1 16.542969 1.335938 16.207031 1.75 16.207031 L 3.75 16.207031 C 4.164062 16.207031 4.5 16.542969 4.5 16.957031 C 4.5 17.371094 4.164062 17.707031 3.75 17.707031 L 1.75 17.707031 C 1.335938 17.707031 1 17.371094 1 16.957031 Z M 1 16.957031 "/>
<path style=" stroke:none;fill-rule:nonzero;fill:rgb(100%,100%,100%);fill-opacity:1;" d="M 21.75 6.207031 C 22.164062 6.207031 22.5 6.542969 22.5 6.957031 C 22.5 7.371094 22.164062 7.707031 21.75 7.707031 L 19.75 7.707031 C 19.335938 7.707031 19 7.371094 19 6.957031 C 19 6.542969 19.335938 6.207031 19.75 6.207031 Z M 21.75 6.207031 "/>
</g>
</svg>
