<?xml version="1.0" encoding="utf-8"?>
<!-- Generator: Adobe Illustrator 23.1.0, SVG Export Plug-In . SVG Version: 6.00 Build 0)  -->
<svg version="1.1" id="Livello_1" xmlns="http://www.w3.org/2000/svg" xmlns:xlink="http://www.w3.org/1999/xlink" x="0px" y="0px"
	 viewBox="0 0 100 100" style="enable-background:new 0 0 100 100;" xml:space="preserve">
<style type="text/css">
	.st0{fill:#FFFFFF;}
</style>
<g>
	<path class="st0" d="M73.7,5.3H69c-3.5,0-6.7,1.7-9.6,4.6H45.6c-2.9-3-6.2-4.6-9.5-4.6h-4.7C20,5.3,11.1,22.8,11.1,45.1
		c0,19.9,7,35.9,16.6,39.2v0.1c0,2.3-0.8,4.4-2.4,6.1c-1.6,1.6-3.7,2.5-6,2.5h-2.6c-4.7,0-8.5-3.8-8.5-8.4v-3c0-0.6-0.5-1.1-1.1-1.1
		S6,81,6,81.6v3c0,5.9,4.8,10.6,10.6,10.6h2.6c2.9,0,5.6-1.1,7.6-3.2c1.9-1.9,3-4.5,3-7.2c0.5,0.1,1,0.1,1.5,0.1H36
		c3.4,0,6.6-1.6,9.5-4.6h13.8c2.8,2.9,6.1,4.6,9.6,4.6h4.7C85.1,84.9,94,67.5,94,45.1S85.1,5.3,73.7,5.3z M39.3,77.4
		c-3.6,0-7-2.9-9.7-7.7l-0.4-24.6c0-15.8,6.3-29.9,14-32.3h3.6C40.4,18,36,30.3,36,45.1c0,3.4,0.2,6.7,0.7,9.9
		c0.1,0.5,0.5,0.9,1.1,0.9c0.1,0,0.1,0,0.2,0c0.6-0.1,1-0.6,0.9-1.2c-0.5-3.1-0.7-6.3-0.7-9.6c0-16.1,5.9-29.9,13.2-32.3h2.7
		c-5,5.2-9.8,17.7-9.8,32.3c0,3.4,0.2,6.7,0.7,9.9c0,0.6,0.5,1,1,1c0.1,0,0.1,0,0.2,0c0.6-0.1,1-0.6,0.9-1.2
		c-0.5-3.1-0.7-6.3-0.7-9.6C46.4,31,51.3,18.5,56,14c0.2-0.2,0.4-0.4,0.6-0.6c-4.8,7.2-7.9,18.6-7.9,31.7c0,13.5,3.2,25.1,8.3,32.3
		C57,77.4,39.3,77.4,39.3,77.4z M27.4,64.7c-2-5.5-3.2-12.3-3.2-19.6c0-17.1,6.6-31.6,14.5-32.3c-6.7,5.3-11.6,18-11.6,32.4
		L27.4,64.7z M39.3,9.9c-10.1,0-18,15.5-18,35.2c0,10.8,2.4,20.4,6.2,26.8l0.1,5.2c-5.2-6.4-8.9-18.5-8.9-32
		c0-20,7.9-36.9,17.4-36.9c1.7,0,3.4,0.6,5.1,1.7L39.3,9.9L39.3,9.9z M14,45.1c0-16.7,5.5-31.2,12.9-35.6c-6.6,6.5-11,19.8-11,35.6
		s4.4,29.1,11,35.6C19.6,76.4,14,61.8,14,45.1z M36.1,82c-2.2,0-4.3-0.9-6.3-2.6l-0.1-4.3c2.8,3.3,6,5.2,9.6,5.2h1.9
		C39.6,81.5,37.9,82,36.1,82z M61.4,78.1c-0.1-0.1-0.2-0.3-0.3-0.4c-5.5-6.2-9.4-18.7-9.4-32.6c0-13.7,3.8-26,9.2-32.4
		c0.5-0.1,0.9-0.6,1-1.1c0.9-0.8,1.7-1.5,2.6-2.1c-6.6,6.5-11,19.8-11,35.6s4.4,29.1,11,35.6C63.4,80.1,62.4,79.2,61.4,78.1z
		 M73.7,82c-9.4,0-17.4-16.9-17.4-36.9S64.2,8.2,73.7,8.2s17.4,16.9,17.4,36.9S83.1,82,73.7,82z"/>
	<path class="st0" d="M73.7,35.8c-3,0-5.3,4-5.3,9.3s2.3,9.3,5.3,9.3s5.3-4,5.3-9.3S76.8,35.8,73.7,35.8z M73.7,51.6
		c-0.8,0-2.4-2.4-2.4-6.4s1.6-6.4,2.4-6.4s2.4,2.4,2.4,6.4C76.1,49.1,74.6,51.6,73.7,51.6z"/>
	<path class="st0" d="M33.4,45.1c0-11.4,2.8-21.8,7.4-27.8c0.4-0.5,0.3-1.2-0.2-1.5c-0.5-0.4-1.2-0.3-1.5,0.2
		c-4.9,6.4-7.9,17.3-7.9,29.2c0,12.9,1.8,21,6.3,27.8c0.2,0.3,0.6,0.5,0.9,0.5c0.2,0,0.4-0.1,0.6-0.2c0.5-0.3,0.6-1,0.3-1.5
		C35.1,65.3,33.4,57.6,33.4,45.1z"/>
	<path class="st0" d="M51.6,74.2c-5.4-5.4-8.4-15.9-8.4-29c0-12.3,2.4-22.5,6.7-28c0.4-0.5,0.3-1.2-0.2-1.5
		c-0.5-0.4-1.2-0.3-1.5,0.2C43.6,21.7,41,32.4,41,45.1c0,13.7,3.3,24.8,9.1,30.6c0.2,0.2,0.5,0.3,0.8,0.3s0.6-0.1,0.8-0.3
		C52,75.3,52,74.6,51.6,74.2z"/>
	<path class="st0" d="M39.5,59.1c-0.1-0.6-0.6-1-1.2-0.9c-0.6,0.1-1,0.6-0.9,1.2c0,0.2,0.6,4.1,3,9c0.2,0.4,0.6,0.6,1,0.6
		c0.2,0,0.3,0,0.5-0.1c0.5-0.3,0.8-0.9,0.5-1.5C40.1,62.9,39.5,59.2,39.5,59.1z"/>
</g>
</svg>
