<!DOCTYPE svg PUBLIC "-//W3C//DTD SVG 1.1//EN" "http://www.w3.org/Graphics/SVG/1.1/DTD/svg11.dtd">
<!-- Uploaded to: SVG Repo, www.svgrepo.com, Transformed by: SVG Repo Mixer Tools -->
<svg width="64px" height="64px" viewBox="0 0 48 48" xmlns="http://www.w3.org/2000/svg" fill="#ffffff">
<g id="SVGRepo_bgCarrier" stroke-width="0"/>
<g id="SVGRepo_tracerCarrier" stroke-linecap="round" stroke-linejoin="round"/>
<g id="SVGRepo_iconCarrier"> <title>eject-circle-solid</title> <g id="Layer_2" data-name="Layer 2"> <g id="invisible_box" data-name="invisible box"> <rect width="48" height="48" fill="none"/> </g> <g id="icons_Q2" data-name="icons Q2"> <path d="M24,2A22,22,0,1,0,46,24,21.9,21.9,0,0,0,24,2ZM14.2,25.3l9-13.8a.9.9,0,0,1,1.6,0l9,13.8a1.1,1.1,0,0,1-.9,1.7H15.1A1.1,1.1,0,0,1,14.2,25.3Zm19.2,9.1A2,2,0,0,1,32,35H16a2,2,0,0,1,0-4H32a2,2,0,0,1,2,2A2,2,0,0,1,33.4,34.4Z"/> </g> </g> </g>
</svg>