<?xml version="1.0" encoding="UTF-8"?>
<svg xmlns="http://www.w3.org/2000/svg" xmlns:xlink="http://www.w3.org/1999/xlink" width="24px" height="24px" viewBox="0 0 24 24" version="1.1">
<g id="surface1">
<path style="fill-rule:nonzero;fill:rgb(100%,100%,100%);fill-opacity:1;stroke-width:1;stroke-linecap:butt;stroke-linejoin:miter;stroke:rgb(100%,100%,100%);stroke-opacity:1;stroke-miterlimit:4;" d="M 4.523438 7 L 7 7 C 7.550781 7 8 7.449219 8 8 C 8 8.550781 7.550781 9 7 9 L 3 9 C 1.894531 9 1 8.105469 1 7 L 1 3 C 1 2.449219 1.449219 2 2 2 C 2.550781 2 3 2.449219 3 3 L 3 5.675781 C 4.269531 3.867188 6.0625 2.476562 8.148438 1.695312 C 10.664062 0.757812 13.433594 0.769531 15.941406 1.730469 C 18.449219 2.691406 20.515625 4.539062 21.757812 6.917969 C 22.996094 9.300781 23.324219 12.050781 22.675781 14.65625 C 22.027344 17.261719 20.445312 19.539062 18.234375 21.0625 C 16.023438 22.585938 13.332031 23.246094 10.664062 22.917969 C 8 22.59375 5.546875 21.304688 3.765625 19.292969 C 2.207031 17.535156 1.261719 15.332031 1.046875 13.007812 C 0.996094 12.457031 1.453125 12.007812 2.003906 12.007812 C 2.558594 12.007812 3.003906 12.457031 3.066406 13.003906 C 3.269531 14.835938 4.039062 16.570312 5.269531 17.960938 C 6.726562 19.605469 8.730469 20.660156 10.910156 20.925781 C 13.085938 21.191406 15.289062 20.652344 17.097656 19.40625 C 18.902344 18.164062 20.195312 16.300781 20.726562 14.171875 C 21.253906 12.042969 20.988281 9.792969 19.972656 7.847656 C 18.960938 5.902344 17.269531 4.390625 15.222656 3.605469 C 13.171875 2.820312 10.90625 2.808594 8.851562 3.578125 C 7.109375 4.230469 5.621094 5.402344 4.578125 6.921875 C 4.5625 6.949219 4.542969 6.976562 4.523438 7 Z M 4.523438 7 "/>
</g>
</svg>
