<?xml version="1.0" encoding="UTF-8"?>
<svg xmlns="http://www.w3.org/2000/svg" xmlns:xlink="http://www.w3.org/1999/xlink" width="24px" height="24px" viewBox="0 0 24 24" version="1.1">
<g id="surface1">
<path style="fill-rule:nonzero;fill:rgb(100%,100%,100%);fill-opacity:1;stroke-width:1;stroke-linecap:butt;stroke-linejoin:miter;stroke:rgb(100%,100%,100%);stroke-opacity:1;stroke-miterlimit:4;" d="M 337.750906 130.5 L 292.251232 130.5 C 291.43743 130.5 290.770112 130.988281 290.770112 131.582357 C 290.827078 132.086914 291.209565 132.493815 291.714122 132.583333 L 338.296154 132.583333 C 338.800711 132.493815 339.17506 132.086914 339.232026 131.582357 C 339.232026 130.988281 338.572846 130.5 337.750906 130.5 Z M 337.750906 130.5 " transform="matrix(0.48,0,0,0.48,-139.19856,-62.64)"/>
<path style="fill-rule:nonzero;fill:rgb(100%,100%,100%);fill-opacity:1;stroke-width:1;stroke-linecap:butt;stroke-linejoin:miter;stroke:rgb(100%,100%,100%);stroke-opacity:1;stroke-miterlimit:4;" d="M 335.960542 177.301758 L 335.521089 177.301758 L 335.521089 162.498698 C 335.626883 161.351237 335.626883 160.195638 335.537365 159.040039 C 335.529227 149.176758 328.35963 140.77832 318.618419 139.21582 L 318.618419 136.953451 L 334.316661 136.953451 C 335.089773 136.977865 335.740815 136.367513 335.757091 135.586263 L 336.70924 133.633138 L 293.292898 133.633138 L 294.179943 135.586263 C 294.204357 136.367513 294.855398 136.977865 295.62851 136.953451 L 311.928966 136.953451 L 311.928966 139.272786 C 311.839448 139.289062 311.74993 139.305339 311.652273 139.321615 C 302.545828 141.079427 295.823823 148.843099 295.392508 158.104167 C 295.30299 158.315755 295.262299 158.535482 295.262299 158.763346 L 295.262299 177.301758 L 294.041596 177.301758 C 293.16269 177.301758 292.446544 178.017904 292.446544 178.89681 C 292.446544 179.783854 293.16269 180.5 294.041596 180.5 L 335.960542 180.5 C 336.847586 180.5 337.563732 179.783854 337.563732 178.89681 C 337.563732 178.017904 336.847586 177.301758 335.960542 177.301758 Z M 315.94101 172.231771 L 315.94101 169.652018 L 315.208589 169.652018 L 315.208589 172.231771 C 307.84368 171.995768 302.008719 165.941081 302.049409 158.568034 C 302.049409 158.527344 302.049409 158.486654 302.049409 158.445964 L 304.433849 158.445964 L 304.433849 157.713542 L 302.090099 157.713542 C 302.488862 150.69043 308.177339 145.140299 315.208589 144.904297 L 315.208589 147.76888 L 315.94101 147.76888 L 315.94101 144.896159 C 322.980398 145.124023 328.677013 150.682292 329.075776 157.705404 L 325.739188 157.705404 L 325.739188 158.437826 L 329.108328 158.437826 L 329.108328 158.323893 C 329.108328 158.405273 329.116466 158.478516 329.116466 158.568034 C 329.157156 165.941081 323.314057 172.003906 315.94101 172.231771 Z M 315.94101 172.231771 " transform="matrix(0.48,0,0,0.48,-139.19856,-62.64)"/>
<path style="fill-rule:nonzero;fill:rgb(100%,100%,100%);fill-opacity:1;stroke-width:1;stroke-linecap:butt;stroke-linejoin:miter;stroke:rgb(100%,100%,100%);stroke-opacity:1;stroke-miterlimit:4;" d="M 316.103771 152.928385 L 316.063081 152.920247 L 316.063081 150.080078 C 316.063081 149.90918 315.843354 149.770833 315.574799 149.770833 C 315.306245 149.770833 315.094656 149.90918 315.094656 150.080078 L 315.094656 152.920247 L 315.053966 152.928385 C 312.205659 153.205078 310.065359 155.670898 310.211844 158.535482 C 310.35019 161.400065 312.710216 163.646159 315.574799 163.646159 C 318.447521 163.646159 320.807547 161.400065 320.945893 158.535482 C 321.08424 155.670898 318.952078 153.205078 316.103771 152.928385 Z M 315.574799 162.921875 C 313.198497 162.905599 311.220958 161.098958 311.001232 158.730794 C 310.773367 156.370768 312.376557 154.222331 314.704031 153.758464 L 314.704031 155.996419 C 313.735607 156.305664 313.068289 157.200846 313.052013 158.218099 C 313.141531 159.552734 314.240164 160.586263 315.574799 160.586263 C 316.909435 160.586263 318.016206 159.552734 318.097586 158.218099 C 318.08131 157.200846 317.42213 156.305664 316.453706 155.996419 L 316.453706 153.750326 C 318.78118 154.214193 320.38437 156.370768 320.156505 158.730794 C 319.928641 161.098958 317.951102 162.905599 315.574799 162.921875 Z M 315.574799 162.921875 " transform="matrix(0.48,0,0,0.48,-139.19856,-62.64)"/>
</g>
</svg>
