<?xml version="1.0" encoding="UTF-8"?>
<svg xmlns="http://www.w3.org/2000/svg" xmlns:xlink="http://www.w3.org/1999/xlink" width="24px" height="24px" viewBox="0 0 24 24" version="1.1">
<g id="surface1">
<path style="fill-rule:nonzero;fill:rgb(100%,100%,100%);fill-opacity:1;stroke-width:1;stroke-linecap:butt;stroke-linejoin:miter;stroke:rgb(100%,100%,100%);stroke-opacity:1;stroke-miterlimit:4;" d="M 10.067546 11.658529 C 10.469564 12.060547 10.469564 12.709961 10.067546 13.111979 L 6.226725 16.952799 C 6.034993 17.147624 5.772135 17.255859 5.5 17.255859 C 5.227865 17.255859 4.965007 17.147624 4.773275 16.952799 L 0.932454 13.111979 C 0.558268 12.706868 0.570638 12.076009 0.960286 11.686361 C 1.353027 11.29362 1.980794 11.28125 2.388997 11.658529 L 4.470215 13.739746 L 4.470215 5.201497 L 2.388997 7.285807 C 1.983887 7.669271 1.346842 7.659993 0.954102 7.26416 C 0.558268 6.871419 0.548991 6.234375 0.932454 5.829264 L 4.773275 1.991536 C 4.965007 1.796712 5.227865 1.688477 5.5 1.688477 C 5.772135 1.688477 6.034993 1.796712 6.226725 1.991536 L 10.067546 5.829264 C 10.451009 6.234375 10.441732 6.871419 10.045898 7.26416 C 9.653158 7.659993 9.016113 7.669271 8.611003 7.285807 L 6.529785 5.201497 L 6.529785 13.739746 L 8.611003 11.658529 C 9.013021 11.25651 9.665527 11.25651 10.067546 11.658529 Z M 10.067546 11.658529 " transform="matrix(1.263158,0,0,1.263158,5.052632,0)"/>
</g>
</svg>
